<svg xmlns="http://www.w3.org/2000/svg" viewBox="0 0 503.77 106.37"><defs><style>.cls-1{fill:#f9d96f;}</style></defs><g id="Livello_2" data-name="Livello 2"><g id="Livello_1-2" data-name="Livello 1"><path class="cls-1" d="M139.72,93.21Q133.09,98,123.29,98a28.09,28.09,0,0,1-14.08-3.56,24.69,24.69,0,0,1-9.87-10.65q-3.63-7.11-3.63-17.36t3.63-17.26a25,25,0,0,1,9.87-10.6A28.09,28.09,0,0,1,123.29,35q9.79,0,16.43,4.77a21.92,21.92,0,0,1,8.6,13.15H159a32.23,32.23,0,0,0-12-19.33c-6.21-4.74-14.08-7.12-23.67-7.12a38.53,38.53,0,0,0-19.48,4.9,34.34,34.34,0,0,0-13.35,14,43.94,43.94,0,0,0-4.85,21.1q0,12.1,4.85,21.12a34.16,34.16,0,0,0,13.35,13.93,38.34,38.34,0,0,0,19.48,4.92q14.24,0,23.62-7.27a31.9,31.9,0,0,0,11.23-16.2H147.41A21.46,21.46,0,0,1,139.72,93.21Z"/><path class="cls-1" d="M188.77,101.45A35.42,35.42,0,0,1,175,87.51q-5.05-9-5-21.11a42.09,42.09,0,0,1,5.12-21.11A35.83,35.83,0,0,1,189,31.35a42.45,42.45,0,0,1,39.6,0,35.27,35.27,0,0,1,13.94,13.94,42.59,42.59,0,0,1,5,21.11,42.19,42.19,0,0,1-5.11,21,35.47,35.47,0,0,1-14.08,14,40.76,40.76,0,0,1-19.91,4.9A39.54,39.54,0,0,1,188.77,101.45Zm33.91-7.25a26.57,26.57,0,0,0,10.59-10.52q4.06-7.05,4.06-17.28t-4-17.28A26.25,26.25,0,0,0,222.82,38.6a30.77,30.77,0,0,0-28.43,0,25.7,25.7,0,0,0-10.45,10.52Q180,56.17,180,66.4t3.91,17.28A25.73,25.73,0,0,0,194.32,94.2a29.35,29.35,0,0,0,14.14,3.48A29.8,29.8,0,0,0,222.68,94.2Z"/><path class="cls-1" d="M268,101.09q-7.75-5.11-9-15.5h2.84a17.68,17.68,0,0,0,7.61,13.3q6.75,4.77,19.12,4.76a23.94,23.94,0,0,0,11-2.42,18,18,0,0,0,7.32-6.46A16.08,16.08,0,0,0,309.41,86a11.9,11.9,0,0,0-2.91-8.32,19.2,19.2,0,0,0-7.25-4.9,112.46,112.46,0,0,0-11.88-3.7,104.6,104.6,0,0,1-13.57-4.26A22.3,22.3,0,0,1,265,58.3q-3.63-4.41-3.62-11.66a16.16,16.16,0,0,1,3.12-9.53,22,22,0,0,1,8.61-7,28,28,0,0,1,12.29-2.63q11.67,0,18.77,5.83t7.68,16.21H309a19.47,19.47,0,0,0-6.47-14q-6-5.46-17.14-5.47a25,25,0,0,0-10.8,2.28A19.16,19.16,0,0,0,267,38.39a13.81,13.81,0,0,0-2.77,8.25q0,6.26,3.27,10.09a19.79,19.79,0,0,0,8,5.69,128.82,128.82,0,0,0,12.73,4A133.58,133.58,0,0,1,301,70.52a20.39,20.39,0,0,1,7.89,5.62A14.54,14.54,0,0,1,312.11,86,18,18,0,0,1,309,96.33a21.34,21.34,0,0,1-8.53,7.25,27.35,27.35,0,0,1-12.09,2.63Q275.71,106.21,268,101.09Z"/><path class="cls-1" d="M367.71,105.22l-35.41-36v36h-2.84V0h2.84V63.56L367,28.44h4.12L333.3,66.54l38.39,38.68Z"/><path class="cls-1" d="M381.57,7.75A3.76,3.76,0,0,1,380.5,5a3.77,3.77,0,0,1,1.07-2.78,3.79,3.79,0,0,1,5.26,0A3.77,3.77,0,0,1,387.9,5a3.76,3.76,0,0,1-1.07,2.77,3.77,3.77,0,0,1-5.26,0Zm4.05,20.69v76.78h-2.84V28.44Z"/><path class="cls-1" d="M409.79,0V105.22H407V0Z"/><path class="cls-1" d="M434,0V105.22h-2.84V0Z"/><path class="cls-1" d="M459.62,101.09q-7.74-5.11-9-15.5h2.85a17.67,17.67,0,0,0,7.6,13.3q6.75,4.77,19.13,4.76a23.94,23.94,0,0,0,11-2.42,18.14,18.14,0,0,0,7.32-6.46A16.08,16.08,0,0,0,501.07,86a11.86,11.86,0,0,0-2.92-8.32,19.12,19.12,0,0,0-7.25-4.9A112.16,112.16,0,0,0,479,69.1a104.82,104.82,0,0,1-13.58-4.26,22.27,22.27,0,0,1-8.81-6.54Q453,53.89,453,46.64a16.1,16.1,0,0,1,3.13-9.53,21.92,21.92,0,0,1,8.6-7A28.09,28.09,0,0,1,477,27.44q11.65,0,18.77,5.83t7.68,16.21h-2.85a19.43,19.43,0,0,0-6.47-14Q488.13,30,477,30a25.06,25.06,0,0,0-10.81,2.28,19.2,19.2,0,0,0-7.6,6.11,13.82,13.82,0,0,0-2.78,8.25q0,6.26,3.27,10.09a19.75,19.75,0,0,0,8,5.69,127.65,127.65,0,0,0,12.72,4,133,133,0,0,1,12.73,4.12,20.39,20.39,0,0,1,7.89,5.62A14.54,14.54,0,0,1,503.77,86a18,18,0,0,1-3.13,10.31,21.28,21.28,0,0,1-8.53,7.25A27.28,27.28,0,0,1,480,106.21Q467.37,106.21,459.62,101.09Z"/><path class="cls-1" d="M10.11,62.07H64.8a27.22,27.22,0,0,0-4.87-16.93,30,30,0,0,0,9.94-1.89C75,51.7,75.42,61,74.61,70.2H10.11C10.57,80.92,15.36,90,24.5,94.75c13.45,6.89,32.68,2.75,38-11.86h10.6c-4.77,14.84-18.39,23.75-34.9,23.47a39.13,39.13,0,0,1-19.65-4.92c-19.13-10.35-23-38-13.65-56.3,8.85-17.41,31.26-22.46,47.94-16.27C63.11,32.68,73.35,27,74.89,17.06a16.2,16.2,0,0,0-16.6,2.47A16,16,0,0,0,67,22.68,16.1,16.1,0,0,1,47.84,19C55.21,6.74,72.69,3.51,84,12.89c0,.48,0,1,0,1.44C84.13,31,67.88,43.6,51.75,38,31.79,31,11.07,39.41,10.11,62.07Z"/></g></g></svg>