<svg xmlns="http://www.w3.org/2000/svg" viewBox="0 0 146.39 172.32"><defs><style>.cls-1{fill:#fff;}</style></defs><g id="Livello_2" data-name="Livello 2"><g id="Livello_1-2" data-name="Livello 1"><path class="cls-1" d="M17.62,95.16h95.27c.26-10.69-2.33-21.15-8.49-29.5a52.5,52.5,0,0,0,17.32-3.3c8.88,14.73,9.67,31,8.27,47H17.62c.79,18.68,9.15,34.56,25.06,42.78,23.43,12,56.93,4.79,66.16-20.67H127.3c-8.3,25.85-32,41.37-60.79,40.89q-19.13,0-34.25-8.57c-33.32-18-40-66.21-23.78-98.08C23.91,35.32,63,26.53,92,37.3c17.94,6.64,35.79-3.34,38.47-20.57-9.23-4.18-21.5-2.24-28.93,4.31a27.94,27.94,0,0,0,15.26,5.49c-10.9,5.72-25.46,2.95-33.46-6.42,12.84-21.36,43.31-27,63-10.63,0,.83.08,1.67.08,2.5.18,29-28.13,51-56.22,41.15C55.38,41,19.29,55.68,17.62,95.16Z"/></g></g></svg>