<svg xmlns="http://www.w3.org/2000/svg" viewBox="0 0 621.68 165.8"><defs><style>.cls-1{fill:#0a5038;}.cls-2{fill:#f9d96f;}</style></defs><g id="Livello_2" data-name="Livello 2"><g id="Livello_1-2" data-name="Livello 1"><rect class="cls-1" width="621.68" height="165.8"/><path class="cls-2" d="M199.05,122.79q-6.62,4.72-16.38,4.73a28,28,0,0,1-14-3.54,24.59,24.59,0,0,1-9.83-10.62c-2.42-4.73-3.63-10.48-3.63-17.3s1.21-12.53,3.63-17.2a24.91,24.91,0,0,1,9.83-10.57,28,28,0,0,1,14-3.54q9.78,0,16.38,4.75a21.82,21.82,0,0,1,8.57,13.1h10.64a32.17,32.17,0,0,0-12-19.26q-9.27-7.1-23.59-7.09a38.38,38.38,0,0,0-19.41,4.88A34.31,34.31,0,0,0,150,75q-4.83,9-4.83,21t4.83,21A34.07,34.07,0,0,0,163.26,131a38.2,38.2,0,0,0,19.41,4.91q14.19,0,23.54-7.25a31.73,31.73,0,0,0,11.2-16.14H206.72A21.42,21.42,0,0,1,199.05,122.79Z"/><path class="cls-2" d="M247.94,131a35.33,35.33,0,0,1-13.75-13.89,42.42,42.42,0,0,1-5-21,42,42,0,0,1,5.1-21,35.67,35.67,0,0,1,13.89-13.89,39.81,39.81,0,0,1,19.7-4.89,40.24,40.24,0,0,1,19.77,4.89A35.06,35.06,0,0,1,301.5,75q5,9,5,21a42,42,0,0,1-5.1,21,35.22,35.22,0,0,1-14,14,40.59,40.59,0,0,1-19.84,4.89A39.4,39.4,0,0,1,247.94,131Zm33.8-7.23a26.5,26.5,0,0,0,10.55-10.48q4.05-7,4-17.22t-4-17.22a26,26,0,0,0-10.48-10.48,30.59,30.59,0,0,0-28.34,0,25.59,25.59,0,0,0-10.42,10.48q-3.9,7-3.9,17.22t3.9,17.22a25.72,25.72,0,0,0,10.34,10.48,29.22,29.22,0,0,0,14.1,3.48A29.65,29.65,0,0,0,281.74,123.77Z"/><path class="cls-2" d="M326.87,130.65q-7.72-5.1-9-15.45h2.84a17.55,17.55,0,0,0,7.58,13.25q6.72,4.76,19.06,4.75a23.93,23.93,0,0,0,11-2.41,18.13,18.13,0,0,0,7.3-6.45,16,16,0,0,0,2.55-8.71,11.79,11.79,0,0,0-2.91-8.29,18.88,18.88,0,0,0-7.22-4.89,112.36,112.36,0,0,0-11.84-3.69,102.9,102.9,0,0,1-13.53-4.25A22.13,22.13,0,0,1,323.89,88q-3.6-4.38-3.61-11.62a16.07,16.07,0,0,1,3.12-9.49,21.78,21.78,0,0,1,8.57-7,28.05,28.05,0,0,1,12.26-2.62q11.61,0,18.71,5.81t7.65,16.16h-2.84a19.38,19.38,0,0,0-6.44-14q-6-5.46-17.08-5.46a25,25,0,0,0-10.77,2.27,19.18,19.18,0,0,0-7.58,6.09,13.79,13.79,0,0,0-2.77,8.22q0,6.24,3.26,10.06a19.68,19.68,0,0,0,8,5.67,127.6,127.6,0,0,0,12.68,4,130.14,130.14,0,0,1,12.69,4.11,20.24,20.24,0,0,1,7.86,5.6,14.5,14.5,0,0,1,3.26,9.85,17.89,17.89,0,0,1-3.12,10.27,21.29,21.29,0,0,1-8.5,7.23,27.27,27.27,0,0,1-12,2.62Q334.6,135.75,326.87,130.65Z"/><path class="cls-2" d="M426.28,134.76,391,98.9v35.86h-2.83V29.89H391V93.24l34.58-35h4.11l-37.7,38,38.27,38.55Z"/><path class="cls-2" d="M440.09,37.61a4.12,4.12,0,0,1,0-5.52,3.75,3.75,0,0,1,5.25,0,4.12,4.12,0,0,1,0,5.52,3.75,3.75,0,0,1-5.25,0Zm4,20.62v76.53H441.3V58.23Z"/><path class="cls-2" d="M468.22,29.89V134.76h-2.83V29.89Z"/><path class="cls-2" d="M492.31,29.89V134.76h-2.83V29.89Z"/><path class="cls-2" d="M517.89,130.65q-7.72-5.1-9-15.45h2.83a17.61,17.61,0,0,0,7.58,13.25q6.74,4.76,19.06,4.75a23.94,23.94,0,0,0,11-2.41,18.19,18.19,0,0,0,7.3-6.45,16,16,0,0,0,2.55-8.71,11.79,11.79,0,0,0-2.91-8.29,19,19,0,0,0-7.23-4.89,111.31,111.31,0,0,0-11.83-3.69,102.41,102.41,0,0,1-13.53-4.25A22.13,22.13,0,0,1,514.91,88q-3.61-4.38-3.61-11.62a16.07,16.07,0,0,1,3.12-9.49,21.78,21.78,0,0,1,8.57-7,28.05,28.05,0,0,1,12.26-2.62q11.61,0,18.7,5.81t7.66,16.16h-2.84a19.36,19.36,0,0,0-6.45-14q-6-5.46-17.07-5.46a25,25,0,0,0-10.77,2.27,19.11,19.11,0,0,0-7.58,6.09,13.73,13.73,0,0,0-2.77,8.22q0,6.24,3.26,10.06a19.61,19.61,0,0,0,8,5.67,127.6,127.6,0,0,0,12.68,4,129.8,129.8,0,0,1,12.68,4.11,20.27,20.27,0,0,1,7.87,5.6,14.5,14.5,0,0,1,3.26,9.85,17.89,17.89,0,0,1-3.12,10.27,21.29,21.29,0,0,1-8.5,7.23,27.28,27.28,0,0,1-12,2.62Q525.6,135.75,517.89,130.65Z"/><path class="cls-2" d="M69.88,91.76h54.5a27.14,27.14,0,0,0-4.86-16.88A30,30,0,0,0,129.43,73c5.08,8.42,5.53,17.73,4.73,26.86H69.88c.45,10.69,5.23,19.77,14.33,24.47,13.41,6.86,32.57,2.74,37.85-11.82h10.57c-4.76,14.79-18.34,23.66-34.79,23.39A39,39,0,0,1,78.25,131c-19.06-10.31-22.91-37.87-13.6-56.11,8.82-17.35,31.16-22.38,47.78-16.22,10.26,3.8,20.47-1.91,22-11.77a16.16,16.16,0,0,0-16.55,2.47,16,16,0,0,0,8.72,3.14,16,16,0,0,1-19.13-3.67c7.34-12.22,24.77-15.44,36-6.09,0,.48,0,1,0,1.44.1,16.57-16.1,29.17-32.17,23.54C91.48,60.77,70.83,69.17,69.88,91.76Z"/></g></g></svg>