<svg xmlns="http://www.w3.org/2000/svg" viewBox="0 0 303.41 303.41"><defs><style>.cls-1{fill:#fff;}.cls-2{fill:#0a5038;}</style></defs><g id="Livello_2" data-name="Livello 2"><g id="Livello_1-2" data-name="Livello 1"><circle class="cls-1" cx="151.71" cy="151.71" r="151.71"/><path class="cls-2" d="M96.13,155.71H191.4c.26-10.68-2.33-21.15-8.49-29.5a52.25,52.25,0,0,0,17.33-3.3c8.88,14.73,9.67,31,8.26,47H96.13c.8,18.69,9.15,34.56,25.06,42.78,23.43,12,56.93,4.79,66.16-20.66h18.47c-8.31,25.85-32,41.36-60.8,40.88q-19.12,0-34.25-8.57c-33.32-18-40-66.21-23.78-98.08,15.43-30.33,54.47-39.13,83.53-28.35,17.93,6.63,35.78-3.35,38.46-20.58-9.23-4.17-21.49-2.24-28.92,4.31a27.86,27.86,0,0,0,15.25,5.49c-10.9,5.72-25.45,3-33.45-6.41,12.83-21.37,43.3-27,62.95-10.64,0,.83.09,1.67.09,2.5.17,29-28.14,51-56.23,41.15C133.9,101.55,97.81,116.23,96.13,155.71Z"/></g></g></svg>